<svg height="48" width="48" xmlns="http://www.w3.org/2000/svg" xmlns:xlink="http://www.w3.org/1999/xlink"><radialGradient id="a" cx="3" cy="5.01718" gradientTransform="matrix(-.00000001 1.7142916 -2.159331 -.00000001 12.809361 2.857001)" gradientUnits="userSpaceOnUse" r="21"><stop offset="0" stop-color="#bdbdbd"/><stop offset="1" stop-color="#d0d0d0"/></radialGradient><linearGradient id="b" gradientUnits="userSpaceOnUse" x1="12.047975" x2="12.047975" y1="13.182598" y2="16.19013"><stop offset="0" stop-color="#f9f9f9"/><stop offset="1" stop-color="#c9c9c9"/></linearGradient><linearGradient id="c"><stop offset="0"/><stop offset="1" stop-opacity="0"/></linearGradient><radialGradient id="d" cx="605.71429" cy="486.64789" gradientTransform="matrix(-.03212956 0 0 .03705882 23.363215 25.412461)" gradientUnits="userSpaceOnUse" r="117.14286" xlink:href="#c"/><radialGradient id="e" cx="605.71429" cy="486.64789" gradientTransform="matrix(.03212957 0 0 .03705882 24.636785 25.412461)" gradientUnits="userSpaceOnUse" r="117.14286" xlink:href="#c"/><linearGradient id="f" gradientTransform="matrix(.08284024 0 0 .03705882 -5.940829 25.412461)" gradientUnits="userSpaceOnUse" x1="302.85715" x2="302.85715" y1="366.64789" y2="609.50507"><stop offset="0" stop-opacity="0"/><stop offset=".5"/><stop offset="1" stop-opacity="0"/></linearGradient><linearGradient id="g" gradientUnits="userSpaceOnUse" x1="28.688083" x2="11.57487" y1="45" y2="15.82976"><stop offset="0" stop-color="#bb5e12"/><stop offset="1" stop-color="#cd8033"/></linearGradient><radialGradient id="h" cx="63.969177" cy="14.113381" gradientTransform="matrix(1.5646925 -.0000001 .00000006 1.015888 -86.212573 8.146117)" gradientUnits="userSpaceOnUse" r="23.097054"><stop offset="0" stop-color="#edd563"/><stop offset="1" stop-color="#e08223"/></radialGradient><linearGradient id="i" gradientTransform="matrix(1.1446925 0 0 .9977536 -3.466141 1.098843)" gradientUnits="userSpaceOnUse" x1="22.934725" x2="22.809399" y1="49.629246" y2="36.657963"><stop offset="0" stop-color="#0a0a0a" stop-opacity=".498"/><stop offset="1" stop-color="#0a0a0a" stop-opacity="0"/></linearGradient><radialGradient id="j" cx="7.264654" cy="8.302126" gradientTransform="matrix(0 1.2079744 -1.6271642 0 26.371748 8.266469)" gradientUnits="userSpaceOnUse" r="20.979567"><stop offset="0" stop-color="#fff" stop-opacity=".4"/><stop offset="1" stop-color="#fff" stop-opacity="0"/></radialGradient><linearGradient id="k" gradientUnits="userSpaceOnUse" x1="11.566265" x2="15.214532" y1="22.292103" y2="33.95525"><stop offset="0" stop-color="#fff" stop-opacity=".27451"/><stop offset="1" stop-color="#fff" stop-opacity=".078431"/></linearGradient><radialGradient id="l" cx="17.81411" cy="24.149399" gradientTransform="matrix(-2.643979 0 .00000003 2.534421 17.296545 -33.914711)" gradientUnits="userSpaceOnUse" r="9.125"><stop offset="0" stop-color="#fff"/><stop offset="1" stop-color="#b6b6b6"/></radialGradient><path d="m3.5062498 8.4999995c-.690271.0076716-1.0004418.3421461-1.0004418 1 0 5.5144545.0262782 9.7395765-.0058079 14.7504305 1.4354706 0 42.9999979-3.699732 42.9999979-5.292264v-6.451519c0-.657853-.554204-1.007671-1.244479-1h-20.255519c-2.047483 0-3.498891-3.0066475-5-3.0066475z" fill="url(#b)" stroke="url(#a)" stroke-linecap="round" stroke-linejoin="round"/><g opacity=".4" transform="matrix(.9583333 0 0 .6666667 1.000001 15)"><path d="m4 39h40v9h-40z" fill="url(#f)" opacity="1"/><path d="m44 39.00031v8.999504c1.654593.016941 4.000001-2.016333 4-4.500331 0-2.483999-1.846402-4.499173-4-4.499173z" fill="url(#e)" opacity="1"/><path d="m4 39.00031v8.999504c-1.6545932.016941-4-2.016333-4-4.500331 0-2.483999 1.8464008-4.499173 4-4.499173z" fill="url(#d)" opacity="1"/></g><path d="m2.1628556 16.525193c-1.072707.123694-.49977 1.402118-.585297 2.121012.392532 8.47009.788932 16.769455 1.179047 25.239602.341836.965693 1.594435.47116 2.388117.59375h39.5806354c1.08938-.106651.63646-1.407681.7897-2.152262.39254-8.47009.78894-16.769455 1.17905-25.239602-.25117-.954289-1.51951-.424014-2.263123-.5625-14.089374 0-28.178751 0-42.2681294 0z" fill="url(#h)" stroke="url(#g)" stroke-linecap="round" stroke-linejoin="round"/><path d="m2.0582428 16.065146 43.8964752.000403c.63416 0 1.045155.444611 1.045155.997367l-1.244236 26.939331c0 .552755-.510532.997753-1.14469.997753h-41.2089348c-.6341599 0-1.1446927-.444998-1.1446927-.997753l-1.2442309-26.939347c0-.552757.4109943-.997754 1.0451542-.997754z" fill="url(#i)" opacity=".4"/><path d="m46.5 17.5c-13.53125 0-30.46875 0-44 0 .3854167 8.177083.7708333 16.354167 1.15625 24.53125" fill="none" stroke="url(#j)" stroke-linecap="round" stroke-linejoin="round"/><path d="m45.75 16c-14.54959.073348-29.104584-.021149-43.65625 0-1.80676016.411117-.8344067 2.46661-.9724264 3.771525.2220295 4.163347.3230667 8.344939.6204615 12.496882 15.0005129-2.362798 29.9265449-4.607254 44.6644649-7.049657.780991-2.586578.787378-5.670594.657357-8.429224-.229136-.504562-.787008-.800844-1.313607-.789526z" fill="url(#k)"/><rect display="block" fill="#edbd74" height="2" rx="1" width="13" x="5" y="10"/><g transform="translate(60.678595 -4.071428)"><path d="m-30.928595 25.008588 17 16.500001-7.75.25s3.25 6.75 3.25 6.75c1 3-3.5 4.125-4.25 1.875 0 0-3-6.75-3-6.75l-5.5 5.875.25-24.500001z" fill="url(#l)" fill-rule="evenodd" stroke="#666" stroke-linejoin="round"/><path d="m-29.77136 27.449999 13.475546 13.185793-6.921861.277459s3.872136 7.756567 3.872136 7.756567c.402731 1.650134-2.028275 2.412565-2.5071 1.152867 0 0-3.683065-7.844955-3.683065-7.844955l-4.424727 4.708334.189071-19.236065z" fill="none" opacity=".4" stroke="#fff"/></g></svg>